#!OML:ASF E:\acrobat2\Project_11_07_03\Capture day 1\Session 1\Acrobat.ASF
:FULLY-SPECIFIED
:DEGREES
267
root 10.3034 16.6477 31.9395 -174.558 -0.395865 181.702
lowerback -2.37055 -0.237953 0.616601
upperback 0.179328 -0.339814 0.188962
thorax 1.50981 -0.166373 -0.16444
lowerneck -1.98065 -1.85042 -1.79008
upperneck 19.1639 -1.44988 2.04736
head 6.15245 -0.160774 0.920796
rclavicle 8.69683e-017 -1.78906e-015
rhumerus -18.9629 10.4736 -79.5419
rradius 16.9314
rwrist 21.9427
rhand -0.983111 -39.5936
rfingers 7.12502
rthumb 24.6484 -68.0263
lclavicle 8.69683e-017 -1.78906e-015
lhumerus -14.2448 -23.2918 81.1697
lradius 11.6779
lwrist -2.50314
lhand -1.68681 -10.6376
lfingers 7.12502
lthumb 23.9737 17.8855
rfemur 8.7886 25.0128 -2.35963
rtibia -4.23776
rfoot -44.8129 -25.9257
rtoes 20.6204
lfemur 7.99972 -17.8687 8.49044
ltibia -5.7715
lfoot -40.4388 -9.23391
ltoes 52.5678
268
root 10.3025 16.6496 31.9431 -174.168 -0.457525 181.601
lowerback -2.09193 -0.247985 0.559183
upperback 0.320559 -0.348492 0.15714
thorax 1.49834 -0.170342 -0.164169
lowerneck -1.9293 -1.87486 -1.73411
upperneck 19.133 -1.4716 1.9505
head 6.13312 -0.176111 0.879241
rclavicle -3.83903e-015 -9.93923e-016
rhumerus -17.8464 10.4171 -79.0733
rradius 17.0034
rwrist 21.904
rhand -1.28059 -39.5855
rfingers 7.12502
rthumb 24.3632 -68.0568
lclavicle -3.83903e-015 -9.93923e-016
lhumerus -12.9772 -23.3326 80.3788
lradius 11.7831
lwrist -2.43899
lhand -1.99351 -10.608
lfingers 7.12502
lthumb 23.6796 17.9534
rfemur 8.42299 25.0763 -2.63403
rtibia -4.30449
rfoot -45.1336 -25.9697
rtoes 20.9001
lfemur 7.54365 -17.908 8.50161
ltibia -5.76279
lfoot -40.5892 -9.30882
ltoes 52.5518
269
root 10.302 16.652 31.9474 -173.758 -0.497332 181.499
lowerback -1.79027 -0.262911 0.48638
upperback 0.449833 -0.364382 0.13288
thorax 1.46175 -0.178555 -0.147551
lowerneck -1.86086 -1.8805 -1.69091
upperneck 19.1117 -1.46534 1.86231
head 6.11351 -0.177106 0.844469
rclavicle -4.47266e-016 -3.97569e-016
rhumerus -16.7053 10.3513 -78.6158
rradius 17.0595
rwrist 21.8962
rhand -1.58707 -39.589
rfingers 7.12502
rthumb 24.0694 -68.0995
lclavicle -4.47266e-016 -3.97569e-016
lhumerus -11.7291 -23.3374 79.5872
lradius 11.9265
lwrist -2.28744
lhand -2.36369 -10.5755
lfingers 7.12502
lthumb 23.3245 18.0315
rfemur 8.01305 25.1437 -2.92825
rtibia -4.36117
rfoot -45.4346 -26.006
rtoes 21.2864
lfemur 7.07458 -17.9449 8.51344
ltibia -5.75219
lfoot -40.771 -9.40823
ltoes 52.5333
270
root 10.3018 16.6552 31.9523 -173.336 -0.5052 181.391
lowerback -1.45952 -0.277885 0.396874
upperback 0.569728 -0.381013 0.110686
thorax 1.39935 -0.187714 -0.119187
lowerneck -1.75666 -1.8697 -1.67194
upperneck 19.0715 -1.4396 1.80525
head 6.08181 -0.168146 0.824833
rclavicle 1.2921e-015 6.75868e-015
rhumerus -15.5563 10.3323 -78.1787
rradius 17.119
rwrist 21.8577
rhand -1.87903 -39.6223
rfingers 7.12502
rthumb 23.7894 -68.1695
lclavicle 1.2921e-015 6.75868e-015
lhumerus -10.5052 -23.3528 78.7937
lradius 12.1065
lwrist -2.03592
lhand -2.83637 -10.549
lfingers 7.12502
lthumb 22.871 18.1147
rfemur 7.56053 25.2125 -3.24916
rtibia -4.40715
rfoot -45.6996 -26.061
rtoes 21.668
lfemur 6.61707 -17.9976 8.50923
ltibia -5.75548
lfoot -41.0086 -9.53776
ltoes 52.5111
271
root 10.3016 16.6592 31.9573 -172.908 -0.486876 181.259
lowerback -1.10631 -0.284378 0.278621
upperback 0.692307 -0.387086 0.083335
thorax 1.32731 -0.192201 -0.0795176
lowerneck -1.62407 -1.84772 -1.68406
upperneck 18.995 -1.40582 1.79131
head 6.03414 -0.155509 0.824361
rclavicle 3.08116e-015 5.96354e-016
rhumerus -14.3983 10.3475 -77.7445
rradius 17.1889
rwrist 21.7729
rhand -2.15771 -39.6861
rfingers 7.12502
rthumb 23.5221 -68.2679
lclavicle 3.08116e-015 5.96354e-016
lhumerus -9.27296 -23.3665 78.0031
lradius 12.3137
lwrist -1.73056
lhand -3.30626 -10.5284
lfingers 7.12502
lthumb 22.42 18.1904
rfemur 7.07607 25.2727 -3.61805
rtibia -4.44355
rfoot -45.9277 -26.1363
rtoes 21.987
lfemur 6.17866 -18.0953 8.46002
ltibia -5.7783
lfoot -41.3265 -9.69259
ltoes 52.4792
272
root 10.3013 16.664 31.9621 -172.478 -0.455463 181.113
lowerback -0.736028 -0.272555 0.154705
upperback 0.829828 -0.370455 0.047725
thorax 1.26102 -0.185807 -0.0446255
lowerneck -1.47573 -1.82634 -1.71232
upperneck 18.8663 -1.38306 1.81336
head 5.96789 -0.149108 0.836932
rclavicle -2.03754e-015 7.95139e-016
rhumerus -13.2188 10.3128 -77.2957
rradius 17.256
rwrist 21.6928
rhand -2.43473 -39.757
rfingers 7.12502
rthumb 23.2564 -68.3726
lclavicle -2.03754e-015 7.95139e-016
lhumerus -7.99145 -23.3776 77.2208
lradius 12.5335
lwrist -1.40145
lhand -3.8227 -10.5028
lfingers 7.12502
lthumb 21.9242 18.2749
rfemur 6.57134 25.3226 -4.01593
rtibia -4.46585
rfoot -46.1324 -26.2149
rtoes 22.2255
lfemur 5.75515 -18.2398 8.38239
ltibia -5.81887
lfoot -41.697 -9.85845
ltoes 52.4703
273
root 10.3007 16.6693 31.9669 -172.049 -0.417437 180.976
lowerback -0.347275 -0.239295 0.051293
upperback 0.984906 -0.327666 0.00562288
thorax 1.20217 -0.166722 -0.0276073
lowerneck -1.32583 -1.80644 -1.73062
upperneck 18.6956 -1.36943 1.84409
head 5.88831 -0.147977 0.849646
rclavicle 2.06239e-015 1.39149e-015
rhumerus -12.0246 10.2223 -76.8337
rradius 17.3235
rwrist 21.6172
rhand -2.73202 -39.8232
rfingers 7.12502
rthumb 22.9711 -68.4745
lclavicle 2.06239e-015 1.39149e-015
lhumerus -6.64693 -23.3778 76.446
lradius 12.7507
lwrist -1.06344
lhand -4.39417 -10.4883
lfingers 7.12502
lthumb 21.3754 18.3526
rfemur 6.04993 25.3586 -4.41386
rtibia -4.47046
rfoot -46.3178 -26.2929
rtoes 22.3511
lfemur 5.34305 -18.4106 8.30891
ltibia -5.87605
lfoot -42.0886 -9.9829
ltoes 52.4784
274
root 10.3002 16.6746 31.9724 -171.601 -0.37755 180.864
lowerback 0.0514812 -0.195919 -0.0218713
upperback 1.14767 -0.273821 -0.0327763
thorax 1.14539 -0.142461 -0.0239946
lowerneck -1.16559 -1.77488 -1.7284
upperneck 18.484 -1.34221 1.85558
head 5.79367 -0.142042 0.853235
rclavicle 3.47873e-016 7.15625e-015
rhumerus -10.8225 10.1558 -76.3703
rradius 17.4082
rwrist 21.509
rhand -3.06533 -39.9037
rfingers 7.12502
rthumb 22.6513 -68.5945
lclavicle 3.47873e-016 7.15625e-015
lhumerus -5.25779 -23.3072 75.6799
lradius 12.9626
lwrist -0.751451
lhand -4.97694 -10.5033
lfingers 7.12502
lthumb 20.8156 18.4001
rfemur 5.48352 25.3584 -4.80566
rtibia -4.44832
rfoot -46.4722 -26.3601
rtoes 22.3973
lfemur 4.91234 -18.5769 8.27826
ltibia -5.9428
lfoot -42.4912 -9.99622
ltoes 52.4745
275
root 10.3 16.6794 31.9794 -171.106 -0.322987 180.786
lowerback 0.45054 -0.152042 -0.0668844
upperback 1.30075 -0.221035 -0.0612823
thorax 1.07844 -0.118928 -0.0264902
lowerneck -0.992248 -1.72908 -1.69869
upperneck 18.2355 -1.29591 1.83428
head 5.68463 -0.128889 0.842594
rclavicle 7.45443e-017 -5.96354e-015
rhumerus -9.61457 10.2013 -75.9215
rradius 17.5256
rwrist 21.3181
rhand -3.41664 -40.0204
rfingers 7.12502
rthumb 22.3141 -68.7519
lclavicle 7.45443e-017 -5.96354e-015
lhumerus -3.85914 -23.1535 74.9185
lradius 13.1788
lwrist -0.458251
lhand -5.56806 -10.542
lfingers 7.12502
lthumb 20.2475 18.4227
rfemur 4.82689 25.3074 -5.20421
rtibia -4.39502
rfoot -46.5746 -26.4068
rtoes 22.4386
lfemur 4.43623 -18.7104 8.31662
ltibia -6.016
lfoot -42.9076 -9.90311
ltoes 52.4592
276
root 10.3005 16.6831 31.9876 -170.547 -0.242366 180.74
lowerback 0.840377 -0.112864 -0.0973389
upperback 1.43421 -0.175398 -0.0809671
thorax 0.996599 -0.0990493 -0.0285811
lowerneck -0.848009 -1.68916 -1.65596
upperneck 18.0088 -1.25622 1.798
head 5.58763 -0.118921 0.824707
rclavicle 9.93923e-016 2.18663e-015
rhumerus -8.39872 10.4084 -75.4927
rradius 17.682
rwrist 21.0004
rhand -3.76215 -40.1779
rfingers 7.12502
rthumb 21.9823 -68.9488
lclavicle 9.93923e-016 2.18663e-015
lhumerus -2.48416 -22.9167 74.1587
lradius 13.412
lwrist -0.177339
lhand -6.25115 -10.6137
lfingers 7.12502
lthumb 19.5909 18.4192
rfemur 4.06812 25.2252 -5.62108
rtibia -4.32786
rfoot -46.6374 -26.4457
rtoes 22.5292
lfemur 3.90791 -18.8184 8.42134
ltibia -6.09806
lfoot -43.3718 -9.75952
ltoes 52.4012
277
root 10.3016 16.686 31.9973 -169.936 -0.149513 180.715
lowerback 1.21535 -0.0861816 -0.127323
upperback 1.56195 -0.147328 -0.0927539
thorax 0.917315 -0.088244 -0.0232195
lowerneck -0.742887 -1.65541 -1.62078
upperneck 17.8046 -1.22656 1.76898
head 5.50487 -0.114004 0.809816
rclavicle -6.4605e-016 -1.78906e-015
rhumerus -7.1467 10.7432 -75.0738
rradius 17.8626
rwrist 20.5833
rhand -4.08699 -40.3488
rfingers 7.12502
rthumb 21.6704 -69.156
lclavicle -6.4605e-016 -1.78906e-015
lhumerus -1.13611 -22.5716 73.4061
lradius 13.6745
lwrist 0.0636192
lhand -7.15495 -10.765
lfingers 7.12502
lthumb 18.7218 18.3541
rfemur 3.24105 25.1412 -6.05053
rtibia -4.26667
rfoot -46.6958 -26.4941
rtoes 22.6878
lfemur 3.32871 -18.9256 8.57817
ltibia -6.18518
lfoot -43.8967 -9.61628
ltoes 52.2764
278
root 10.3033 16.6883 32.0083 -169.287 -0.062073 180.689
lowerback 1.54483 -0.124057 -0.170338
upperback 1.72133 -0.125205 -0.104134
thorax 0.896132 -0.0463053 -0.00993478
lowerneck -0.695222 -1.63013 -1.60408
upperneck 17.6046 -1.215 1.76075
head 5.43387 -0.119446 0.803327
rclavicle 1.39149e-015 5.56597e-015
rhumerus -5.81027 11.1209 -74.643
rradius 18.0478
rwrist 20.1116
rhand -4.38763 -40.4934
rfingers 7.12502
rthumb 21.3817 -69.3337
lclavicle 1.39149e-015 5.56597e-015
lhumerus 0.243026 -22.1858 72.6461
lradius 13.9678
lwrist 0.322359
lhand -8.13276 -10.8823
lfingers 7.12502
lthumb 17.7811 18.3248
rfemur 2.38228 25.062 -6.50007
rtibia -4.22345
rfoot -46.7782 -26.5696
rtoes 22.8626
lfemur 2.70188 -19.043 8.76092
ltibia -6.27212
lfoot -44.4615 -9.51432
ltoes 52.1087
279
root 10.3048 16.6909 32.0198 -168.62 -0.00541661 180.635
lowerback 1.88679 -0.130527 -0.238701
upperback 1.89387 -0.124673 -0.117333
thorax 0.881589 -0.042366 0.0153455
lowerneck -0.707938 -1.61601 -1.62374
upperneck 17.4348 -1.22313 1.7916
head 5.38347 -0.134375 0.814122
rclavicle -2.43511e-015 -2.38542e-015
rhumerus -4.4402 11.4706 -74.1834
rradius 18.2324
rwrist 19.6262
rhand -4.67267 -40.5971
rfingers 7.12502
rthumb 21.1079 -69.4681
lclavicle -2.43511e-015 -2.38542e-015
lhumerus 1.6388 -21.8452 71.9013
lradius 14.288
lwrist 0.654348
lhand -9.04406 -10.9835
lfingers 7.12502
lthumb 16.904 18.3008
rfemur 1.54702 25.0002 -6.977
rtibia -4.21772
rfoot -46.941 -26.6698
rtoes 23.0585
lfemur 2.03039 -19.1786 8.9323
ltibia -6.34942
lfoot -45.0277 -9.46969
ltoes 51.9322
280
root 10.3056 16.6945 32.0311 -167.957 -0.00188486 180.548
lowerback 2.24409 -0.146461 -0.318252
upperback 2.0974 -0.134379 -0.134589
thorax 0.890432 -0.0425435 0.0428941
lowerneck -0.788275 -1.60536 -1.66978
upperneck 17.2774 -1.24191 1.8544
head 5.34902 -0.155126 0.838528
rclavicle -1.68967e-015 -2.98177e-015
rhumerus -3.02683 11.706 -73.6867
rradius 18.4064
rwrist 19.1901
rhand -4.95089 -40.6545
rfingers 7.12502
rthumb 20.8406 -69.5552
lclavicle -1.68967e-015 -2.98177e-015
lhumerus 3.1014 -21.5843 71.1644
lradius 14.608
lwrist 1.07871
lhand -9.79484 -11.0671
lfingers 7.12502
lthumb 16.1812 18.2775
rfemur 0.785333 24.9805 -7.45862
rtibia -4.26229
rfoot -47.2343 -26.7709
rtoes 23.3505
lfemur 1.32003 -19.3231 9.08529
ltibia -6.40837
lfoot -45.5327 -9.47303
ltoes 51.8034
281
root 10.3059 16.6993 32.0422 -167.308 -0.0553722 180.442
lowerback 2.65461 -0.0672146 -0.385351
upperback 2.31768 -0.177004 -0.149728
thorax 0.886557 -0.126987 0.0653295
lowerneck -0.898093 -1.60418 -1.73587
upperneck 17.1315 -1.27444 1.9311
head 5.32369 -0.182903 0.869885
rclavicle -1.68967e-015 -2.38542e-015
rhumerus -1.60405 11.8411 -73.1651
rradius 18.5838
rwrist 18.8002
rhand -5.23582 -40.6832
rfingers 7.12502
rthumb 20.5668 -69.6137
lclavicle -1.68967e-015 -2.38542e-015
lhumerus 4.62449 -21.4169 70.4268
lradius 14.9059
lwrist 1.59065
lhand -10.4059 -11.1386
lfingers 7.12502
lthumb 15.5928 18.2529
rfemur 0.108703 25.0228 -7.91516
rtibia -4.3493
rfoot -47.6829 -26.8591
rtoes 23.7466
lfemur 0.580202 -19.4502 9.2396
ltibia -6.447
lfoot -45.9253 -9.48803
ltoes 51.7544
